<?xml version="1.0" encoding="UTF-8"?>
<svg xmlns="http://www.w3.org/2000/svg" xmlns:xlink="http://www.w3.org/1999/xlink" width="0" height="0">
<defs>
<symbol viewBox="0 0 18 18" fill="none" id="workflow">
<path d="M7.18164 0.924805C7.5873 0.924805 7.97683 1.0862 8.26367 1.37305C8.5503 1.65977 8.71082 2.04868 8.71094 2.4541V7.18164C8.71094 7.5873 8.55052 7.97683 8.26367 8.26367C7.97683 8.55052 7.5873 8.71094 7.18164 8.71094H5.43848V11.5908C5.43848 12.1253 5.87327 12.5614 6.40918 12.5615H9.28906V10.8184C9.28906 10.4127 9.44948 10.0232 9.73633 9.73633C10.0232 9.44948 10.4127 9.28906 10.8184 9.28906H15.5459C15.9513 9.28918 16.3402 9.4497 16.627 9.73633C16.9138 10.0232 17.0752 10.4127 17.0752 10.8184V15.5459C17.0751 15.9514 16.9137 16.3402 16.627 16.627C16.3402 16.9137 15.9514 17.0751 15.5459 17.0752H10.8184C10.4127 17.0752 10.0232 16.9138 9.73633 16.627C9.4497 16.3402 9.28918 15.9513 9.28906 15.5459V13.8027H6.40918C5.82285 13.8025 5.26029 13.5689 4.8457 13.1543C4.43115 12.7396 4.19734 12.1772 4.19727 11.5908V8.71094H2.4541C2.04868 8.71082 1.65977 8.5503 1.37305 8.26367C1.0862 7.97683 0.924805 7.5873 0.924805 7.18164V2.4541C0.924922 2.0486 1.08631 1.65979 1.37305 1.37305C1.65979 1.08631 2.0486 0.924922 2.4541 0.924805H7.18164ZM10.8184 10.5293C10.7418 10.5293 10.6684 10.5601 10.6143 10.6143C10.5601 10.6684 10.5293 10.7418 10.5293 10.8184V15.5459C10.5294 15.6223 10.5602 15.696 10.6143 15.75C10.6684 15.8039 10.742 15.834 10.8184 15.834H15.5459C15.6223 15.8339 15.696 15.804 15.75 15.75C15.804 15.696 15.8339 15.6223 15.834 15.5459V10.8184C15.834 10.742 15.8039 10.6684 15.75 10.6143C15.696 10.5602 15.6223 10.5294 15.5459 10.5293H10.8184ZM2.4541 2.16602C2.37771 2.16613 2.30403 2.19597 2.25 2.25C2.19597 2.30403 2.16613 2.37771 2.16602 2.4541V7.18164C2.16602 7.25805 2.19606 7.33164 2.25 7.38574C2.30403 7.43977 2.37771 7.47059 2.4541 7.4707H7.18164C7.25819 7.4707 7.33161 7.43987 7.38574 7.38574C7.43987 7.33161 7.4707 7.25819 7.4707 7.18164V2.4541C7.47059 2.37771 7.43977 2.30403 7.38574 2.25C7.33164 2.19606 7.25805 2.16602 7.18164 2.16602H2.4541Z" fill="#404040" stroke="#404040" stroke-width="0.15"></path>
</symbol>
<symbol viewBox="0 0 24 20" fill="none" id="warning">
<path d="M12 11.0001V7.0001M12 14.3751V14.3762M10.6101 1.28373C11.4989 0.905424 12.5011 0.905424 13.3899 1.28373C16.0413 2.41217 22.3045 12.4218 22.1211 15.0972C22.0491 16.1459 21.5294 17.1112 20.6973 17.7421C18.4845 19.4193 5.51548 19.4193 3.30278 17.7421C2.47058 17.1112 1.9509 16.1459 1.87895 15.0972C1.69539 12.4218 7.95863 2.41217 10.6101 1.28373Z" stroke="currentColor" stroke-width="2" stroke-linecap="round" stroke-linejoin="round"></path>
</symbol>
<symbol viewBox="0 0 16 14" fill="none" id="wallet">
<path d="M1.3335 8.66667V6.33333C1.3335 4.46649 1.3335 3.53307 1.69681 2.82003C2.01639 2.19282 2.52632 1.68289 3.15353 1.36331C3.86657 1 4.79999 1 6.66683 1H9.00016C9.93205 1 10.398 1 10.7655 1.15224C11.2556 1.35523 11.6449 1.74458 11.8479 2.23463C11.9861 2.56834 11.9989 2.98316 12 3.7542M1.3335 8.66667C1.3335 9.55314 1.3335 10.3297 1.58723 10.9423C1.92554 11.759 2.57446 12.408 3.39122 12.7463C4.00379 13 4.78036 13 6.3335 13H9.66683C11.22 13 11.9965 13 12.6091 12.7463C13.4259 12.408 14.0748 11.759 14.4131 10.9423C14.6668 10.3297 14.6668 9.55314 14.6668 8.66667C14.6668 7.11353 14.6668 6.33696 14.4131 5.72439C14.0748 4.90763 13.4259 4.25871 12.6091 3.9204C12.4262 3.84462 12.2286 3.79147 12 3.7542M1.3335 8.66667C1.3335 7.11353 1.3335 6.33696 1.58723 5.72439C1.92554 4.90763 2.57446 4.25871 3.39122 3.9204C4.00379 3.66667 4.78036 3.66667 6.3335 3.66667H9.66683C10.7561 3.66667 11.4634 3.66667 12 3.7542M9.3335 7H11.3335" stroke="#E09400" stroke-width="1.5" stroke-linecap="round" stroke-linejoin="round"></path>
</symbol>
<symbol viewBox="0 0 16 16" fill="none" id="user-shield">
<path d="M7.36491 14H4.00033C3.26395 14 2.66699 13.403 2.66699 12.6667C2.66699 11.1939 3.8609 10 5.33366 10H6.77376M10.667 4.66667C10.667 6.13943 9.47308 7.33333 8.00033 7.33333C6.52757 7.33333 5.33366 6.13943 5.33366 4.66667C5.33366 3.19391 6.52757 2 8.00033 2C9.47308 2 10.667 3.19391 10.667 4.66667ZM11.4091 9.60364L9.87185 10.0902C9.57353 10.1846 9.36768 10.4442 9.35459 10.7425L9.33652 11.1543C9.28374 12.3571 9.96527 13.4812 11.0872 14.0419L11.3048 14.1506C11.5206 14.2585 11.7781 14.2611 11.9963 14.1575L12.1859 14.0675C13.3863 13.4975 14.1004 12.2911 13.9889 11.0211L13.9625 10.7196C13.9373 10.4329 13.7346 10.188 13.4472 10.0971L11.8882 9.60364C11.7327 9.55443 11.5646 9.55443 11.4091 9.60364Z" stroke="#2DCA04" stroke-width="1.5" stroke-linecap="round" stroke-linejoin="round"></path>
</symbol>
<symbol viewBox="0 0 14 15" fill="none" id="trash">
<path d="M9.66699 3.99968L8.92994 2.52558C8.5645 1.79469 7.81748 1.33301 7.00033 1.33301C6.18317 1.33301 5.43615 1.79469 5.07071 2.52558L4.33366 3.99967M1.66699 3.99968H12.3337M5.66699 7.33301V10.6663M8.33366 7.33301V10.6663M3.00033 3.99968H11.0003V9.99968C11.0003 11.2422 11.0003 11.8634 10.7973 12.3535C10.5267 13.0069 10.0076 13.526 9.35415 13.7967C8.86409 13.9997 8.24284 13.9997 7.00033 13.9997C5.75781 13.9997 5.13656 13.9997 4.6465 13.7967C3.99309 13.526 3.47396 13.0069 3.20331 12.3535C3.00033 11.8634 3.00033 11.2422 3.00033 9.99968V3.99968Z" stroke="#F03D3D" stroke-width="1.5" stroke-linecap="round" stroke-linejoin="round"></path>
</symbol>
<symbol viewBox="0 0 15 16" fill="none" id="swipe">
<path d="M9.49967 2.91419C10.9625 3.23015 12.317 3.83704 13.4997 4.67128M0.833008 4.67128C1.4552 4.2324 2.12495 3.85643 2.83301 3.55266M3.98707 12.8453L1.15835 8.49343C0.986921 8.2297 1.08319 7.8755 1.36454 7.73483C2.22978 7.30217 3.27841 7.51397 3.90797 8.24843L4.83677 9.33203V2.66536C4.83677 1.92898 5.43372 1.33203 6.1701 1.33203C6.9065 1.33203 7.50343 1.92898 7.50343 2.66536V6.66536L10.709 7.19963C13.0593 7.59145 13.1582 10.2526 12.4768 12.0698C11.2765 15.2705 5.82449 15.6721 3.98707 12.8453Z" stroke="currentColor" stroke-width="1.5" stroke-linecap="round" stroke-linejoin="round"></path>
</symbol>
<symbol viewBox="0 0 20 18" fill="none" id="support">
<path d="M9.99984 3.52284C7.3599 -0.455434 1.6665 1.91816 1.6665 6.45356C1.6665 12.314 9.16651 16.5 9.99984 16.5C10.6139 16.5 14.8476 14.2272 17.0333 10.6864M9.99984 3.52284C12.6353 -0.448625 18.3332 1.92226 18.3332 6.45356C18.3332 7.99571 17.8138 9.4219 17.0333 10.6864M9.99984 3.52284L7.65829 6.48944C7.09003 7.20939 7.15133 8.24088 7.80086 8.88846C8.54028 9.62565 9.74881 9.5845 10.4364 8.79872L12.0832 6.91667C13.1489 8.78173 14.9542 10.1462 17.0333 10.6864" stroke="#404040" stroke-width="1.5" stroke-linecap="round" stroke-linejoin="round"></path>
</symbol>
<symbol viewBox="0 0 16 16" fill="none" id="shield-check">
<path d="M6.08926 8.01191L7.42708 9.34831C8.08313 8.20116 8.99968 7.23243 10.0893 6.48839M7.25612 1.57788L3.66439 2.87489C2.89827 3.15155 2.37647 3.86519 2.34516 4.67913L2.26032 6.88485C2.1552 9.61798 3.57985 12.1825 5.95591 13.5372L6.96969 14.1153C7.57024 14.4577 8.30503 14.4657 8.91289 14.1364L9.90532 13.5989C12.4502 12.2204 13.9463 9.47403 13.7243 6.58829L13.573 4.62129C13.5127 3.83692 12.9981 3.16077 12.2582 2.89358L8.6147 1.57788C8.17571 1.41935 7.69511 1.41935 7.25612 1.57788Z" stroke="#2DCA04" stroke-width="1.5" stroke-linecap="round" stroke-linejoin="round"></path>
</symbol>
<symbol viewBox="0 0 16 18" fill="none" id="settings">
<path d="M7.16688 9C7.16688 8.53976 7.53998 8.16667 8.00021 8.16667C8.46045 8.16667 8.83355 8.53976 8.83355 9C8.83355 9.46024 8.46045 9.83333 8.00021 9.83333C7.53998 9.83333 7.16688 9.46024 7.16688 9Z" stroke="#404040" stroke-width="1.5" stroke-linecap="round" stroke-linejoin="round"></path>
<path d="M5.13479 2.59953C6.17866 1.99724 6.70059 1.69609 7.25548 1.57822C7.74645 1.47393 8.25387 1.47393 8.74484 1.57822C9.29973 1.69609 9.82167 1.99724 10.8655 2.59953L12.114 3.31986C13.1578 3.92215 13.6798 4.2233 14.0593 4.64461C14.3952 5.01738 14.6489 5.45654 14.804 5.93361C14.9793 6.47279 14.9793 7.07509 14.9793 8.27967V9.72033C14.9793 10.9249 14.9793 11.5272 14.804 12.0664C14.6489 12.5435 14.3952 12.9826 14.0593 13.3554C13.6798 13.7767 13.1578 14.0778 12.114 14.6801L10.8655 15.4005C9.82167 16.0028 9.29973 16.3039 8.74484 16.4218C8.25387 16.5261 7.74645 16.5261 7.25548 16.4218C6.70059 16.3039 6.17866 16.0028 5.13479 15.4005L3.88636 14.6801C2.8425 14.0778 2.32057 13.7767 1.94098 13.3554C1.60512 12.9826 1.3514 12.5435 1.1963 12.0664C1.021 11.5272 1.021 10.9249 1.021 9.72033V8.27967C1.021 7.07509 1.021 6.47279 1.1963 5.93361C1.3514 5.45654 1.60512 5.01738 1.94098 4.64461C2.32057 4.2233 2.8425 3.92215 3.88636 3.31986L5.13479 2.59953Z" stroke="#404040" stroke-width="1.5" stroke-linecap="round" stroke-linejoin="round"></path>
</symbol>
<symbol viewBox="0 0 20 20" fill="none" id="home">
<path d="M7.5 14.167H12.5M6.33801 4.70886L4.17134 6.75516C3.55527 7.33701 3.24723 7.62793 3.02659 7.97233C2.83101 8.27762 2.68654 8.61277 2.59889 8.96457C2.5 9.36146 2.5 9.78516 2.5 10.6326V12.167C2.5 14.0338 2.5 14.9672 2.86331 15.6803C3.18289 16.3075 3.69282 16.8174 4.32003 17.137C5.03307 17.5003 5.96649 17.5003 7.83333 17.5003H12.1667C14.0335 17.5003 14.9669 17.5003 15.68 17.137C16.3072 16.8174 16.8171 16.3075 17.1367 15.6803C17.5 14.9672 17.5 14.0338 17.5 12.167V10.6326C17.5 9.78516 17.5 9.36146 17.4011 8.96457C17.3135 8.61277 17.169 8.27762 16.9734 7.97233C16.7528 7.62793 16.4447 7.33701 15.8287 6.75516L13.662 4.70886C12.3732 3.49171 11.7289 2.88313 10.9938 2.65354C10.3467 2.45143 9.65333 2.45143 9.00623 2.65354C8.27114 2.88313 7.62676 3.49171 6.33801 4.70886Z" stroke="#404040" stroke-width="1.5" stroke-linecap="round" stroke-linejoin="round"></path>
</symbol>
<symbol viewBox="0 0 24 24" id="google"><path fill="currentColor" d="M21.35 11.1h-9.17v2.73h6.51c-.33 3.81-3.5 5.44-6.5 5.44C8.36 19.27 5 16.25 5 12c0-4.1 3.2-7.27 7.2-7.27c3.09 0 4.9 1.97 4.9 1.97L19 4.72S16.56 2 12.1 2C6.42 2 2.03 6.8 2.03 12c0 5.05 4.13 10 10.22 10c5.35 0 9.25-3.67 9.25-9.09c0-1.15-.15-1.81-.15-1.81"></path></symbol>
<symbol viewBox="0 0 24 24" id="github"><path fill="currentColor" d="M12 2A10 10 0 0 0 2 12c0 4.42 2.87 8.17 6.84 9.5c.5.08.66-.23.66-.5v-1.69c-2.77.6-3.36-1.34-3.36-1.34c-.46-1.16-1.11-1.47-1.11-1.47c-.91-.62.07-.6.07-.6c1 .07 1.53 1.03 1.53 1.03c.87 1.52 2.34 1.07 2.91.83c.09-.65.35-1.09.63-1.34c-2.22-.25-4.55-1.11-4.55-4.92c0-1.11.38-2 1.03-2.71c-.1-.25-.45-1.29.1-2.64c0 0 .84-.27 2.75 1.02c.79-.22 1.65-.33 2.5-.33s1.71.11 2.5.33c1.91-1.29 2.75-1.02 2.75-1.02c.55 1.35.2 2.39.1 2.64c.65.71 1.03 1.6 1.03 2.71c0 3.82-2.34 4.66-4.57 4.91c.36.31.69.92.69 1.85V21c0 .27.16.59.67.5C19.14 20.16 22 16.42 22 12A10 10 0 0 0 12 2"></path></symbol>
<symbol viewBox="0 0 16 20" fill="none" id="file">
<path d="M9.66683 1.71493V2.66699C9.66683 4.06712 9.66683 4.76719 9.93931 5.30197C10.179 5.77237 10.5614 6.15483 11.0319 6.39451C11.5666 6.66699 12.2667 6.66699 13.6668 6.66699L14.6189 6.66699M9.66683 1.71493C9.33888 1.66699 8.94683 1.66699 8.29102 1.66699H6.66683C4.79999 1.66699 3.86657 1.66699 3.15353 2.0303C2.52632 2.34988 2.01639 2.85982 1.69681 3.48702C1.3335 4.20006 1.3335 5.13348 1.3335 7.00033V13.0003C1.3335 14.8672 1.3335 15.8006 1.69681 16.5136C2.01639 17.1408 2.52632 17.6508 3.15353 17.9703C3.86657 18.3337 4.79999 18.3337 6.66683 18.3337H9.3335C11.2003 18.3337 12.1338 18.3337 12.8468 17.9703C13.474 17.6508 13.9839 17.1408 14.3035 16.5136C14.6668 15.8006 14.6668 14.8672 14.6668 13.0003V8.0428C14.6668 7.38699 14.6668 6.99494 14.6189 6.66699M9.66683 1.71493C9.74659 1.72658 9.82255 1.74108 9.8976 1.75909C10.2377 1.84075 10.5629 1.97543 10.8611 2.15819C11.1975 2.36433 11.4858 2.65259 12.0623 3.22909L13.1047 4.27156C13.6812 4.84807 13.9695 5.13632 14.1756 5.47271C14.3584 5.77095 14.4931 6.0961 14.5747 6.43622C14.5927 6.51127 14.6072 6.58723 14.6189 6.66699M4.66683 10.8337H11.3335M4.66683 14.167H8.8335" stroke="#404040" stroke-width="1.5" stroke-linecap="round" stroke-linejoin="round"></path>
</symbol>
<symbol viewBox="0 0 16 20" fill="none" id="doc">
<path d="M9.66683 1.71493V2.66699C9.66683 4.06712 9.66683 4.76719 9.93931 5.30197C10.179 5.77237 10.5614 6.15483 11.0319 6.39451C11.5666 6.66699 12.2667 6.66699 13.6668 6.66699L14.6189 6.66699M9.66683 1.71493C9.33888 1.66699 8.94683 1.66699 8.29102 1.66699H6.66683C4.79999 1.66699 3.86657 1.66699 3.15353 2.0303C2.52632 2.34988 2.01639 2.85982 1.69681 3.48702C1.3335 4.20006 1.3335 5.13348 1.3335 7.00033V13.0003C1.3335 14.8672 1.3335 15.8006 1.69681 16.5136C2.01639 17.1408 2.52632 17.6508 3.15353 17.9703C3.86657 18.3337 4.79999 18.3337 6.66683 18.3337H9.3335C11.2003 18.3337 12.1338 18.3337 12.8468 17.9703C13.474 17.6508 13.9839 17.1408 14.3035 16.5136C14.6668 15.8006 14.6668 14.8672 14.6668 13.0003V8.0428C14.6668 7.38699 14.6668 6.99494 14.6189 6.66699M9.66683 1.71493C9.74659 1.72658 9.82255 1.74108 9.8976 1.75909C10.2377 1.84075 10.5629 1.97543 10.8611 2.15819C11.1975 2.36433 11.4858 2.65258 12.0623 3.22909L13.1047 4.27156C13.6812 4.84807 13.9695 5.13632 14.1756 5.47271C14.3584 5.77095 14.4931 6.0961 14.5747 6.43622C14.5927 6.51127 14.6072 6.58723 14.6189 6.66699" stroke="#404040" stroke-width="1.5" stroke-linecap="round" stroke-linejoin="round"></path>
</symbol>
<symbol viewBox="0 0 17 16" fill="none" id="code">
<path d="M5.83301 2.66699C4.72844 2.66699 3.83301 3.46293 3.83301 4.44477V6.22255C3.83301 7.20439 2.93758 8.00033 1.83301 8.00033C2.93758 8.00033 3.83301 8.79626 3.83301 9.7781V11.5559C3.83301 12.5377 4.72844 13.3337 5.83301 13.3337M11.1663 2.66699C12.2709 2.66699 13.1663 3.46293 13.1663 4.44477V6.22255C13.1663 7.20439 14.0618 8.00033 15.1663 8.00033C14.0618 8.00033 13.1663 8.79626 13.1663 9.7781V11.5559C13.1663 12.5377 12.2709 13.3337 11.1663 13.3337" stroke="currentColor" stroke-width="1.5" stroke-linecap="round" stroke-linejoin="round"></path>
</symbol>
<symbol viewBox="0 0 22 12" fill="none" id="check">
<path d="M1.60547 5.78125L6.1292 11.0048L6.50331 10.3507C6.9736 9.52832 7.48622 8.73353 8.03848 7.9692C9.84169 5.47354 12.0675 3.30272 14.6219 1.55842L15.4468 0.995117M20.553 1.60879L19.6832 2.09987C16.1647 4.08624 13.143 6.84548 10.846 10.1695L10.4176 10.7895L10.1202 10.437" stroke="currentColor" stroke-width="2" stroke-linecap="round" stroke-linejoin="round"></path>
</symbol>
<symbol viewBox="0 0 16 20" fill="none" id="authfile">
<path d="M9.66683 1.71493V2.66699C9.66683 4.06713 9.66683 4.76719 9.93933 5.30197C10.179 5.77238 10.5614 6.15483 11.0318 6.39451C11.5667 6.66699 12.2667 6.66699 13.6668 6.66699H14.6189M9.66683 1.71493C9.33891 1.66699 8.94683 1.66699 8.291 1.66699H6.66683C4.79999 1.66699 3.86656 1.66699 3.15353 2.0303C2.52632 2.34988 2.01639 2.85982 1.6968 3.48703C1.3335 4.20007 1.3335 5.13348 1.3335 7.00033V13.0003C1.3335 14.8672 1.3335 15.8006 1.6968 16.5137C2.01639 17.1408 2.52632 17.6507 3.15353 17.9703C3.86656 18.3337 4.79999 18.3337 6.66683 18.3337H9.3335C11.2003 18.3337 12.1337 18.3337 12.8468 17.9703C13.474 17.6507 13.9839 17.1408 14.3035 16.5137C14.6668 15.8006 14.6668 14.8672 14.6668 13.0003V8.0428C14.6668 7.38699 14.6668 6.99494 14.6189 6.66699M9.66683 1.71493C9.74658 1.72658 9.82258 1.74108 9.89758 1.75909C10.2377 1.84075 10.5629 1.97543 10.8611 2.15819C11.1975 2.36433 11.4857 2.65258 12.0622 3.22909L13.1047 4.27156C13.6812 4.84803 13.9695 5.13633 14.1757 5.47271C14.3584 5.77095 14.4931 6.0961 14.5747 6.43622C14.5927 6.51127 14.6072 6.58723 14.6189 6.66699M8.00016 8.75033L6.49852 10.7525C6.18678 11.1682 6.03091 11.376 6.04183 11.531C6.0513 11.6654 6.12519 11.7869 6.24015 11.8572C6.37271 11.9382 6.62896 11.8955 7.14145 11.8101L8.85887 11.5239C9.37137 11.4385 9.62761 11.3958 9.76017 11.4768C9.87514 11.5471 9.94902 11.6686 9.95849 11.803C9.96941 11.958 9.81354 12.1658 9.5018 12.5815L8.00016 14.5837" stroke="#404040" stroke-width="1.5" stroke-linecap="round" stroke-linejoin="round"></path>
</symbol>
<symbol viewBox="0 0 20 20" fill="none" id="ai">
<path d="M7.1476 4.80306C7.53067 4.05886 7.72221 3.68676 7.97952 3.5662C8.20355 3.46123 8.46263 3.46123 8.68666 3.5662C8.94398 3.68676 9.13551 4.05886 9.51859 4.80307L10.5117 6.73231C10.578 6.86124 10.6112 6.92571 10.6541 6.98264C10.6922 7.03318 10.736 7.07921 10.7845 7.11984C10.8392 7.16562 10.9019 7.20205 11.0272 7.2749L13.0159 8.43051C13.6675 8.80915 13.9933 8.99847 14.1028 9.24524C14.1984 9.46051 14.1984 9.70616 14.1028 9.92143C13.9933 10.1682 13.6675 10.3575 13.0159 10.7362L11.0272 11.8918C10.9019 11.9646 10.8392 12.001 10.7845 12.0468C10.736 12.0875 10.6922 12.1335 10.6541 12.184C10.6112 12.241 10.578 12.3054 10.5117 12.4344L9.51859 14.3636C9.13551 15.1078 8.94398 15.4799 8.68666 15.6005C8.46263 15.7054 8.20355 15.7054 7.97952 15.6005C7.72221 15.4799 7.53067 15.1078 7.1476 14.3636L6.15453 12.4344C6.08816 12.3054 6.05497 12.241 6.01205 12.184C5.97394 12.1335 5.9302 12.0875 5.88168 12.0468C5.82701 12.001 5.76432 11.9646 5.63894 11.8918L3.65029 10.7362C2.9987 10.3575 2.6729 10.1682 2.56336 9.92143C2.46781 9.70616 2.46781 9.46051 2.56336 9.24524C2.6729 8.99847 2.9987 8.80915 3.65029 8.43051L5.63894 7.2749C5.76432 7.20205 5.82701 7.16562 5.88168 7.11984C5.9302 7.07921 5.97394 7.03318 6.01205 6.98264C6.05497 6.92571 6.08816 6.86124 6.15453 6.73231L7.1476 4.80306Z" stroke="#171717" stroke-width="1.5" stroke-linecap="round" stroke-linejoin="round"></path>
<path d="M14.5494 16.1718C14.3379 15.9075 14.2322 15.7753 14.1926 15.6229C14.1577 15.4889 14.1577 15.3445 14.1926 15.2104C14.2322 15.058 14.3379 14.9259 14.5494 14.6615L15.229 13.812C15.4404 13.5477 15.5462 13.4155 15.6681 13.366C15.7753 13.3224 15.8909 13.3224 15.9981 13.366C16.12 13.4155 16.2257 13.5477 16.4372 13.812L17.1168 14.6615C17.3283 14.9259 17.434 15.058 17.4736 15.2104C17.5085 15.3445 17.5085 15.4889 17.4736 15.6229C17.434 15.7753 17.3283 15.9075 17.1168 16.1718L16.4372 17.0213C16.2257 17.2857 16.12 17.4178 15.9981 17.4673C15.8909 17.5109 15.7753 17.5109 15.6681 17.4673C15.5462 17.4178 15.4404 17.2857 15.229 17.0213L14.5494 16.1718Z" stroke="#171717" stroke-width="1.5" stroke-linecap="round" stroke-linejoin="round"></path>
<path d="M15.1912 3.63539C15.0855 3.52966 15.0326 3.47679 15.0128 3.41583C14.9954 3.36221 14.9954 3.30445 15.0128 3.25083C15.0326 3.18987 15.0855 3.13701 15.1912 3.03128L15.531 2.69147C15.6368 2.58574 15.6896 2.53287 15.7506 2.51307C15.8042 2.49564 15.862 2.49564 15.9156 2.51307C15.9766 2.53287 16.0294 2.58574 16.1351 2.69147L16.475 3.03128C16.5807 3.13701 16.6336 3.18987 16.6534 3.25083C16.6708 3.30445 16.6708 3.36221 16.6534 3.41583C16.6336 3.47679 16.5807 3.52966 16.475 3.63539L16.1351 3.9752C16.0294 4.08093 15.9766 4.13379 15.9156 4.1536C15.862 4.17102 15.8042 4.17102 15.7506 4.1536C15.6896 4.13379 15.6368 4.08093 15.531 3.9752L15.1912 3.63539Z" stroke="#171717" stroke-width="1.5" stroke-linecap="round" stroke-linejoin="round"></path>
</symbol>
</defs>
</svg>